<svg width="38" height="38" viewBox="0 0 38 38" fill="none" xmlns="http://www.w3.org/2000/svg">
<path d="M11.1548 15.4582C13.5315 15.4582 15.4582 13.5315 15.4582 11.1548C15.4582 8.77805 13.5315 6.85133 11.1548 6.85133C8.77805 6.85133 6.85133 8.77805 6.85133 11.1548C6.85133 13.5315 8.77805 15.4582 11.1548 15.4582Z" fill="#B29C9C"/>
<path d="M11.1548 30.4348C13.5315 30.4348 15.4582 28.5081 15.4582 26.1314C15.4582 23.7547 13.5315 21.8279 11.1548 21.8279C8.77805 21.8279 6.85133 23.7547 6.85133 26.1314C6.85133 28.5081 8.77805 30.4348 11.1548 30.4348Z" fill="#B29C9C"/>
<path d="M26.1314 15.4582C28.5081 15.4582 30.4348 13.5315 30.4348 11.1548C30.4348 8.77805 28.5081 6.85133 26.1314 6.85133C23.7547 6.85133 21.8279 8.77805 21.8279 11.1548C21.8279 13.5315 23.7547 15.4582 26.1314 15.4582Z" fill="#B29C9C"/>
<path d="M26.1314 30.4348C28.5081 30.4348 30.4348 28.5081 30.4348 26.1314C30.4348 23.7547 28.5081 21.8279 26.1314 21.8279C23.7547 21.8279 21.8279 23.7547 21.8279 26.1314C21.8279 28.5081 23.7547 30.4348 26.1314 30.4348Z" fill="#B29C9C"/>
</svg>
