<svg width="54" height="27" viewBox="0 0 54 27" fill="none" xmlns="http://www.w3.org/2000/svg">
<path d="M0.14325 22.4967V25.2151C9.56666 28.0688 16.5729 22.345 26.3242 25.2053C26.3242 24.2104 26.3242 23.3133 26.3242 22.4869C16.5724 19.6267 9.56612 25.3504 0.14325 22.4967Z" fill="#B29C9C"/>
<path d="M26.3242 19.7691C16.5724 16.9084 9.56612 22.6326 0.14325 19.7789C4.75465 11.5168 5.63757 9.93417 10.2501 1.67258C15.6655 4.44311 20.5803 -1.32467 26.3242 1.45294C26.3242 9.81076 26.3242 11.4113 26.3242 19.7691Z" fill="#B29C9C"/>
<path d="M53.5924 22.4967V25.2151C44.1696 28.0688 37.1638 22.345 27.4115 25.2058C27.4115 24.2109 27.4115 23.3139 27.4115 22.4875C37.1638 19.6267 44.1696 25.3504 53.5924 22.4967Z" fill="#B29C9C"/>
<path d="M27.4115 19.7691C37.1638 16.9084 44.1696 22.6326 53.5924 19.7789C48.9816 11.5173 48.0987 9.93471 43.4856 1.67258C38.0701 4.44311 33.1559 -1.32467 27.4115 1.45294C27.4115 9.81076 27.4115 11.4113 27.4115 19.7691Z" fill="#B29C9C"/>
</svg>
