<svg width="22" height="24" viewBox="0 0 22 24" fill="none" xmlns="http://www.w3.org/2000/svg">
<path d="M19.2219 0C20.6279 0 21.7619 1.137 21.8289 2.475V24L19.1519 21.727L17.6819 20.389L16.0779 18.991L16.7479 21.196H2.70992C1.30792 21.196 0.169922 20.131 0.169922 18.72V2.48C0.169922 1.142 1.30992 0.003 2.71492 0.003H19.2149L19.2219 0ZM13.1039 5.683H13.0739L12.8719 5.883C14.9449 6.483 15.9479 7.42 15.9479 7.42C14.6119 6.752 13.4079 6.418 12.2039 6.283C11.3339 6.148 10.4639 6.219 9.72892 6.283H9.52892C9.05892 6.283 8.05892 6.483 6.71892 7.018C6.25192 7.221 5.98392 7.354 5.98392 7.354C5.98392 7.354 6.98592 6.352 9.19392 5.817L9.05892 5.682C9.05892 5.682 7.38692 5.618 5.58192 6.952C5.58192 6.952 3.77692 10.096 3.77692 13.972C3.77692 13.972 4.77692 15.712 7.51992 15.778C7.51992 15.778 7.91992 15.245 8.32492 14.776C6.78492 14.308 6.18492 13.372 6.18492 13.372C6.18492 13.372 6.31892 13.438 6.51992 13.572H6.57992C6.60992 13.572 6.62392 13.587 6.63992 13.602V13.608C6.65592 13.624 6.66992 13.638 6.69992 13.638C7.02992 13.774 7.35992 13.908 7.62992 14.038C8.09592 14.24 8.69492 14.441 9.42992 14.574C10.3599 14.709 11.4259 14.774 12.6399 14.574C13.2399 14.439 13.8399 14.307 14.4399 14.039C14.8299 13.839 15.3099 13.639 15.8369 13.302C15.8369 13.302 15.2369 14.238 13.6319 14.706C13.9619 15.172 14.4269 15.706 14.4269 15.706C17.1709 15.646 18.2369 13.906 18.2969 13.98C18.2969 10.11 16.4819 6.96 16.4819 6.96C14.8469 5.746 13.3169 5.7 13.0469 5.7L13.1029 5.68L13.1039 5.683ZM13.2719 10.096C13.9749 10.096 14.5419 10.696 14.5419 11.431C14.5419 12.171 13.9719 12.771 13.2719 12.771C12.5719 12.771 12.0019 12.171 12.0019 11.437C12.0039 10.697 12.5749 10.099 13.2719 10.099V10.096ZM8.72892 10.096C9.42892 10.096 9.99492 10.696 9.99492 11.431C9.99492 12.171 9.42492 12.771 8.72492 12.771C8.02492 12.771 7.45492 12.171 7.45492 11.437C7.45492 10.697 8.02492 10.099 8.72492 10.099L8.72892 10.096Z" fill="#B29C9C"/>
</svg>
