<svg width="54" height="57" viewBox="0 0 54 57" fill="none" xmlns="http://www.w3.org/2000/svg">
<path d="M53.8054 42.52C54.1764 41.774 53.5204 40.848 52.7364 40.797C52.7354 40.776 52.7334 40.754 52.7314 40.733C53.6164 40.436 53.7404 38.963 53.9024 38.221C53.9724 37.887 53.6064 37.799 53.2524 37.873C53.0294 37.562 52.8034 37.281 52.5434 37.014C52.6304 36.733 52.7174 36.43 52.7854 36.123C52.9374 36.006 53.0724 35.863 53.2274 35.656C53.6984 35.021 53.9524 33.873 53.2684 33.283C52.7994 32.877 52.2934 32.781 51.6894 32.736C51.4514 32.72 51.2334 32.781 51.0214 32.873C50.7874 32.709 50.3174 32.834 50.1314 32.967C49.9054 33.131 49.7454 33.285 49.6184 33.469C49.5654 33.473 49.5154 33.483 49.4624 33.481C49.2444 33.467 49.0194 33.579 48.8584 33.723C48.8194 33.713 48.7824 33.702 48.7464 33.692C48.6324 33.667 48.5384 33.628 48.4524 33.587C48.2914 33.351 48.1394 33.103 48.0224 32.825C48.0884 32.563 48.3074 32.307 48.6584 32.153C49.0904 31.965 49.5024 31.78 49.8824 31.503C50.2134 31.591 50.8354 31.417 50.9284 31.097C50.9864 30.892 51.1004 30.742 51.2224 30.607C51.2914 30.607 51.3534 30.601 51.3764 30.597C51.6144 30.562 51.9744 30.462 52.0864 30.222C52.3004 29.761 52.3044 29.269 52.3044 28.77C52.3044 28.522 51.4174 28.636 51.1534 28.932C51.0824 28.865 51.0064 28.803 50.9284 28.744C51.1484 28.7 51.4684 28.608 51.5534 28.409C51.6484 28.188 51.1304 28.247 51.0524 28.26C50.8244 28.297 50.5944 28.329 50.3754 28.317C49.8824 27.898 49.4174 27.595 48.9724 27.392C49.3604 27.251 49.8164 26.976 49.2004 27.006C48.3084 27.049 47.5404 26.549 46.6334 26.603C45.9394 26.643 45.2124 27.043 44.7554 27.541C44.3944 27.933 44.2924 27.954 44.0774 27.371C44.0554 27.31 44.0504 27.26 44.0384 27.207C44.1314 26.969 44.2674 26.738 44.4284 26.508C44.6234 26.408 44.8604 26.33 45.0724 26.232C45.4474 26.057 45.7574 25.834 46.0914 25.593C46.1934 25.519 46.2534 25.409 46.3054 25.294C46.4424 25.276 46.5794 25.249 46.7224 25.213C46.6934 25.253 46.6664 25.292 46.6294 25.336C46.6074 25.375 46.6164 25.406 46.6534 25.429C47.1224 25.616 47.5854 25.645 48.0364 25.573C48.1474 25.657 48.2564 25.725 48.3474 25.766C49.0624 26.073 50.2084 25.462 50.6634 24.956C50.9574 24.629 51.1054 24.223 51.1524 23.795C51.1994 23.758 51.2434 23.72 51.2884 23.684C51.3424 23.642 51.3804 23.582 51.3144 23.534C51.2574 23.491 51.2134 23.444 51.1674 23.399C51.1544 22.994 51.0584 22.588 50.9054 22.226C51.2264 22.121 51.5214 21.942 51.4224 21.832C51.2564 21.653 51.0834 21.488 50.9084 21.329C51.0314 20.706 51.0964 20.141 50.4684 19.82C50.2454 19.707 49.7024 19.928 49.4434 20.089C49.4034 20.031 49.3624 19.973 49.3204 19.915C49.2464 19.59 49.2014 19.256 49.2314 18.894C49.2444 18.702 49.0904 18.612 48.8904 18.593C48.9004 18.417 48.7944 18.248 48.5024 18.171C48.5954 18.195 48.4834 18.137 48.4514 18.093C48.3974 18.021 48.3534 17.941 48.3054 17.865C48.2684 17.808 48.2184 17.769 48.1744 17.72C48.1894 17.695 48.2084 17.671 48.2414 17.662C48.7334 17.521 49.0504 17.169 49.1454 16.823C49.2924 16.761 49.4384 16.706 49.5664 16.658C49.6684 16.62 49.9874 16.516 49.9694 16.358C49.8464 15.373 48.9484 15.512 48.1634 15.533C48.0894 15.534 47.9434 15.578 47.7854 15.639C47.5664 15.468 47.5614 15.176 47.5994 14.851C47.9284 14.743 48.1964 14.501 48.0104 14.251C47.8224 14.001 47.6644 13.791 47.5244 13.612C47.5244 13.608 47.5294 13.605 47.5294 13.6C47.4924 12.94 47.9034 12.343 47.7414 11.69C47.6794 11.451 47.2034 11.523 47.0504 11.572C46.6224 11.711 45.9044 11.929 45.7664 12.439C45.7254 12.593 45.7254 12.742 45.7484 12.888C45.6674 12.908 45.5814 12.93 45.4904 12.955C45.4684 12.943 45.4484 12.931 45.4254 12.919C45.4774 12.646 45.4264 12.607 45.1964 12.008C45.1334 11.844 44.9694 11.789 44.8044 11.774C44.4134 11.738 42.6734 11.282 41.5904 10.985C41.3854 10.712 40.9794 10.495 40.5674 10.341C41.5474 9.95899 42.5054 9.61599 42.7894 9.49499C43.9384 9.00299 44.0164 7.69599 43.9224 6.49199C43.9144 6.37999 43.7604 6.30699 43.6744 6.28099C42.7894 6.02099 42.0504 6.76699 41.5414 6.08199C41.2374 5.67299 40.9144 4.96799 40.3504 4.87899C39.8694 4.79999 39.9994 4.42799 39.5354 4.02299C38.6404 3.24199 37.9894 3.56899 37.1814 4.28599C36.7764 4.64599 36.0894 5.56899 35.3774 6.41999C35.0434 6.66899 34.7184 6.91999 34.4104 7.18899C34.3874 7.09199 34.3514 6.99199 34.2964 6.88399C33.8544 6.05499 33.9754 6.69999 34.7904 6.03899C35.7604 5.25399 36.8244 3.62999 36.4464 2.36399C35.8284 0.300988 34.0494 1.35899 32.7704 0.607988C31.7084 -0.0150118 31.3864 1.23299 30.4324 0.278988C30.2144 0.0599883 29.8634 0.124988 29.6074 0.225988C28.8104 0.541988 28.7534 1.33299 28.4854 1.93999C28.1264 1.60299 26.9734 2.07999 27.3574 2.45699C27.4424 2.53199 27.5284 2.60799 27.6144 2.68399C27.4724 2.71499 27.3744 2.76799 27.2974 2.82799C26.7934 2.57799 26.3734 1.88599 25.8394 1.67899C25.4594 1.53099 24.9734 1.75599 24.8614 2.14099C24.7064 2.68099 24.6834 2.74899 24.7114 3.03299C24.1764 3.09899 23.5254 3.19199 23.3054 3.61499C22.7244 4.72699 22.5644 4.98799 21.3464 5.31499C19.1734 5.89699 21.2084 7.55799 22.1364 8.12099C22.9554 8.61899 22.5184 8.75699 23.6754 8.88699C23.8264 8.90399 24.3304 9.51999 23.2944 9.10499C22.9754 8.97799 22.5214 9.05799 22.2064 9.14299C21.9814 9.20299 20.7744 10.252 20.8844 10.369C20.8464 10.33 20.8114 10.294 20.7754 10.255C21.0324 10.015 21.2314 9.72699 21.3154 9.37299C21.4094 8.98199 20.8444 8.88599 20.2354 8.97899C20.3184 8.76199 20.4084 8.54699 20.5204 8.33899C20.7724 7.86399 19.6574 7.89999 19.4954 7.92399C19.2564 7.95799 18.9944 8.02599 18.7544 8.13199C18.5514 7.92099 18.3474 7.70899 18.1484 7.49699C17.9744 7.30999 17.7124 7.27799 17.4724 7.34399C16.6624 7.56899 16.6044 7.58199 16.1094 8.27299C15.8174 8.67999 16.4004 9.65399 15.9144 9.73299C14.8724 9.89999 14.3814 10.488 14.6284 11.27C14.6034 11.332 14.5814 11.395 14.5674 11.463C14.4974 11.806 14.4164 12.147 14.4084 12.497C14.4084 12.507 14.4114 12.516 14.4114 12.526C14.3264 12.597 14.2434 12.669 14.1594 12.74C14.0574 12.555 13.9284 12.394 13.7734 12.256C13.6314 12.157 13.3184 11.873 13.0764 11.863C12.3654 11.832 11.7544 11.767 11.1394 12.23C9.68743 13.323 12.8464 14.336 10.0524 14.48C9.75343 14.496 9.00943 15.002 9.52443 15.289C9.97643 15.445 10.2844 15.737 10.4704 16.143C9.47143 16.144 8.29643 16.309 8.54043 17.224C8.71843 17.888 9.54543 17.831 10.2904 17.607C10.3354 17.624 10.3794 17.641 10.4204 17.657C10.4554 17.929 10.3064 18.348 10.1164 18.745C9.68343 19.01 9.33943 19.414 9.17343 19.964C8.44043 20.4 7.97543 21.174 8.74143 21.934C9.64043 22.824 11.6374 20.802 12.3404 22.228C12.2394 22.429 12.1594 22.637 12.1044 22.852C12.0984 22.852 12.0914 22.85 12.0854 22.85C11.6234 22.849 11.1694 23.168 10.7884 23.363C10.6954 23.41 10.6254 23.463 10.5694 23.519C10.3924 23.548 10.2254 23.612 10.1334 23.71C9.80043 24.067 9.52843 24.008 9.41743 23.741C9.41143 23.716 9.40643 23.691 9.39543 23.669C9.37243 23.586 9.36043 23.492 9.36643 23.383C9.38543 23.033 9.28343 22.774 8.97143 22.602C8.73143 22.471 8.45643 22.434 8.16943 22.438C8.14043 22.39 8.11443 22.339 8.08243 22.294C8.23543 22.187 8.33243 22.043 8.27843 21.876C7.90943 20.74 6.25143 20.292 5.33743 20.983C4.25443 21.8 5.83543 22.208 6.29043 22.622C6.30843 22.638 6.32343 22.671 6.33643 22.707C6.27943 22.737 6.23143 22.772 6.18943 22.811C5.87043 22.704 5.56443 22.578 5.26543 22.416C4.72343 22.124 3.89043 22.411 3.58143 22.93C3.30743 23.391 3.37443 23.942 3.58743 24.414C2.82243 24.642 1.96843 24.791 1.74343 25.626C1.72043 25.714 1.77643 25.791 1.86043 25.816C2.83143 26.101 3.04443 26.17 2.80343 27.218C2.77043 27.365 2.91743 27.413 3.03243 27.436C3.76243 27.585 4.38043 27.576 4.96643 27.352C5.04943 28.004 4.40443 28.174 3.85043 28.485C3.58143 28.635 3.25643 29.007 3.51443 29.324C3.59343 29.422 3.66343 29.508 3.72543 29.588C3.66243 29.817 3.61643 30.055 3.58743 30.301C3.51443 30.324 3.43543 30.346 3.33743 30.367C2.84943 30.474 2.62243 30.808 2.48643 31.25C2.44343 31.395 2.60943 31.449 2.71443 31.469C3.24143 31.869 3.28643 32.301 2.85043 32.762C2.78343 32.875 2.78143 32.975 2.92143 33.032C3.32043 33.188 3.51343 33.229 3.79643 33.212C3.98943 34.075 4.87643 34.452 5.74943 34.218C6.59543 33.991 6.96743 33.511 7.11943 32.861C7.80343 32.664 8.55143 32.527 7.98943 33.404C7.83843 33.64 7.85343 33.933 8.15843 34.037C8.93343 34.303 9.54843 34.357 10.1874 33.773C11.0824 32.957 12.5324 32.869 13.6974 32.72C14.2924 32.644 12.8554 33.007 12.7264 33.042C12.3424 33.146 11.8884 33.257 11.5574 33.495C10.8034 34.034 10.8244 34.843 10.7224 35.616C10.3854 35.673 10.0134 35.807 10.0164 35.995C10.0214 36.274 9.98543 36.45 9.92343 36.552C9.89643 36.577 9.87243 36.603 9.85243 36.632C9.62243 36.786 9.20043 36.37 8.91143 35.986C8.76143 35.785 8.26743 35.953 8.08643 36.019C7.84143 36.109 7.46643 35.992 7.18743 36.074C6.95843 36.144 6.72943 36.213 6.50043 36.281C6.49043 36.283 6.48843 36.285 6.47943 36.287C6.48443 36.238 6.45743 36.172 6.35743 36.08C5.53643 35.33 4.98143 34.603 3.80343 35.146C3.60143 35.24 2.91843 35.585 3.05143 35.951C3.09943 36.084 3.15143 36.191 3.20043 36.287C3.19343 36.342 3.19443 36.394 3.20443 36.451C3.24843 36.693 3.32543 36.844 3.39443 36.953C3.39343 37.033 3.38743 37.121 3.36943 37.223C3.36643 37.243 3.44243 37.235 3.53943 37.215C3.53943 37.219 3.54143 37.221 3.54143 37.225C2.95343 37.399 2.31443 37.733 1.78143 38.178C1.77643 38.174 1.77343 38.172 1.76843 38.17C1.59943 38.109 0.448432 38.256 0.574432 38.543C0.688432 38.805 0.807431 38.988 0.947431 39.152C0.834431 39.347 0.739432 39.548 0.690432 39.761C0.677432 39.816 0.698431 39.841 0.734431 39.859C0.689431 39.882 0.643431 39.9 0.599431 39.923C0.382431 40.032 0.120432 40.308 0.308432 40.558C0.493432 40.804 0.900432 40.773 1.14343 40.65C1.28443 40.582 1.42543 40.513 1.56743 40.445C1.76543 41 2.05043 41.517 2.23343 42.078C2.27943 42.217 2.19443 42.357 2.05843 42.496C1.80443 42.615 1.60043 42.769 1.49943 42.941C1.29343 43.087 1.10143 43.232 1.00743 43.369C0.959431 43.439 1.05643 43.484 1.10743 43.492C1.31943 43.525 1.47243 43.582 1.59443 43.65C1.72143 43.964 1.85843 44.275 1.99643 44.58C1.99643 44.59 1.99643 44.598 1.99643 44.605C1.55443 44.626 1.12643 44.845 0.792431 45.244C0.716431 45.336 0.593431 45.523 0.727431 45.633C1.48343 46.25 2.36943 45.895 2.05543 47.141C2.00143 47.356 2.28243 47.469 2.44643 47.469C2.68243 47.469 2.82943 47.524 2.91543 47.615C2.94343 47.726 2.97843 47.83 3.01943 47.929C3.01843 48.202 2.86843 48.534 2.79743 48.732C2.74243 48.888 2.93043 49.005 3.04843 49.037C3.55343 49.168 4.04043 49.232 4.54843 49.258C4.49443 49.817 4.73543 50.149 5.46243 49.891C5.75943 49.786 5.98443 49.565 6.20843 49.35C6.24743 49.313 6.28343 49.28 6.31943 49.246C6.37443 49.726 6.67943 50.035 7.15143 50.17C7.40643 50.24 7.78043 50.108 8.00843 50.004C8.11643 49.955 8.42443 49.787 8.16843 49.713C7.87243 49.631 7.69143 49.428 7.60143 49.17C7.91943 49.203 8.35343 49.037 8.45143 48.813C8.46743 48.78 8.47643 48.745 8.48843 48.711C8.48943 48.711 8.49043 48.711 8.49043 48.711C8.49043 48.707 8.49043 48.705 8.49043 48.703C8.54943 48.537 8.57843 48.375 8.58943 48.203C8.63443 48.09 8.69143 47.978 8.77043 47.859C8.79743 47.816 8.80843 47.779 8.81243 47.742C8.83443 47.73 8.85043 47.715 8.86943 47.701C8.96343 47.803 9.26743 47.81 9.36743 47.797C9.64943 47.764 9.89743 47.656 10.1344 47.522C10.1394 47.563 10.1414 47.604 10.1674 47.645C10.3844 47.989 10.5274 48.35 10.7764 48.583C10.7014 48.753 10.6334 48.925 10.5824 49.099C10.3294 48.951 9.79043 49.001 9.59243 49.255C9.33743 49.585 9.36243 49.941 9.72843 50.173C9.94543 50.312 10.2514 50.267 10.4834 50.152C10.4534 50.199 10.4214 50.246 10.3964 50.293C10.1904 50.676 10.3024 51.018 10.5824 51.322C10.6284 51.373 10.7224 51.388 10.8324 51.384C10.8124 51.575 10.8644 51.751 11.0244 51.917C11.2484 52.144 11.5804 52.159 11.8624 52.022C12.0584 51.922 12.3704 51.592 12.1474 51.364C12.1294 51.346 12.1124 51.329 12.0954 51.311C12.0814 51.291 12.0794 51.29 12.0724 51.282C12.1484 51.057 12.0584 50.911 11.9014 50.831C12.0284 50.772 12.1494 50.7 12.2664 50.618C12.2604 50.671 12.2604 50.725 12.2484 50.778C12.1684 51.159 13.3944 50.952 13.4704 50.592C13.5104 50.406 13.5154 50.215 13.5024 50.028C13.9474 49.854 14.3464 49.608 14.6134 49.169C14.7154 49.003 14.7574 48.753 14.7854 48.481C15.0494 48.456 15.3614 48.327 15.4724 48.235C15.5374 48.18 15.5844 48.122 15.6344 48.065C15.6414 48.059 15.6484 48.055 15.6544 48.051C15.7654 47.949 15.8624 47.854 15.9574 47.758C16.3074 47.787 16.8234 47.572 16.8694 47.317C16.9054 47.118 17.2594 46.256 17.1254 47.157C17.0444 47.698 18.1454 47.284 18.3114 47.089C18.3324 47.064 18.3454 47.036 18.3644 47.011C18.4844 47.056 18.6044 47.105 18.7214 47.161C18.7994 47.196 18.8864 47.214 18.9754 47.222C18.9654 47.236 18.9494 47.243 18.9394 47.259C18.8074 47.45 18.6574 47.636 18.5254 47.829C18.4954 47.813 18.4684 47.792 18.4284 47.784C18.1444 47.712 17.7674 47.807 17.5584 48.014C17.4874 48.086 17.4174 48.157 17.3464 48.227C17.1844 48.389 17.2114 48.575 17.3884 48.665C17.1614 48.921 16.9874 49.259 16.6344 49.351C16.5774 49.367 16.0644 49.572 16.0804 49.685C16.0004 49.767 15.9714 49.855 16.0724 49.933C16.0814 49.939 16.0974 49.939 16.1074 49.945C16.0954 49.98 16.0804 50.013 16.0724 50.05C16.0354 50.224 16.4574 50.22 16.8144 50.124C16.8814 50.315 17.1774 50.388 17.3564 50.354C17.8844 50.26 18.2994 50.073 18.6824 49.752C19.4284 49.74 20.2344 49.41 20.2614 48.582C20.2634 48.549 20.2444 48.527 20.2344 48.502C20.4714 48.371 20.7094 48.24 20.9454 48.106C21.2524 48.016 21.6174 47.895 21.9224 47.731C21.9374 47.762 21.9534 47.793 21.9694 47.825C21.8744 47.946 21.7974 48.069 21.7594 48.159C21.6974 48.307 21.6684 48.483 21.6254 48.649C21.5544 48.717 21.5184 48.784 21.5664 48.837C21.1504 48.927 20.7234 49.251 21.0564 49.505C21.0164 49.554 20.9754 49.601 20.9354 49.648C20.7794 49.836 20.4504 49.927 20.3664 50.183C20.3314 50.285 20.3234 50.374 20.3264 50.46C20.0564 50.481 19.7984 50.601 19.5754 50.778C19.3414 50.628 18.9254 50.743 18.7234 50.883C18.3904 51.117 18.3804 51.332 18.2864 51.703C18.1814 52.117 18.9484 52.084 19.3264 51.816C19.4344 51.841 19.5574 51.836 19.6814 51.806C19.7104 52.042 19.8004 52.245 20.0224 52.374C20.2294 52.495 20.6104 52.362 20.8114 52.292C20.8534 52.278 21.3664 52.069 21.1834 51.964C21.1614 51.952 21.1484 51.935 21.1304 51.921C21.1584 51.921 21.1854 51.927 21.2154 51.925C21.3574 51.915 21.5244 51.864 21.6844 51.796C21.7414 51.796 21.7984 51.796 21.8554 51.796C22.1374 51.796 22.5014 51.71 22.6644 51.452C22.8134 51.214 22.5504 51.063 22.3394 51.056C22.4234 50.706 22.3974 50.339 22.4934 49.984C22.5094 49.922 22.5034 49.875 22.4864 49.832C23.3614 49.783 24.3074 49.484 25.0974 49.664C25.8044 49.826 26.0354 50.512 26.0644 51.353C25.6784 51.187 24.7284 51.589 25.0164 51.874C25.2484 52.106 25.4874 52.323 25.7594 52.511C25.8324 52.564 25.9144 52.585 26.0004 52.599C25.9444 53.085 25.8674 53.566 25.8074 53.99C25.4924 54.111 25.3554 54.428 25.4884 54.642C25.4304 54.691 25.3584 54.732 25.2794 54.769C25.2454 54.775 25.2104 54.781 25.1764 54.787C25.0784 54.807 25.0004 54.844 24.9294 54.889C24.5734 54.979 24.1784 55.004 23.9664 54.971C23.6884 54.93 23.3224 55.047 23.0964 55.203C22.8884 55.349 22.9524 55.484 23.1814 55.521C23.6794 55.595 24.2224 55.501 24.7274 55.375C24.7884 55.488 24.9394 55.563 25.1994 55.523C25.2584 55.515 25.3094 55.496 25.3664 55.486C25.3664 55.488 25.3664 55.49 25.3664 55.494C25.5054 55.467 25.6484 55.443 25.7904 55.422C25.6954 55.502 25.6194 55.598 25.6034 55.719C25.5644 56.031 25.9314 56.129 26.1714 56.117C26.4814 56.101 26.7914 56.006 27.0704 55.851C27.0854 55.853 27.0984 55.861 27.1134 55.865C27.4024 55.904 27.7534 55.81 27.9834 55.633C28.0444 55.582 28.0744 55.533 28.0894 55.485C28.2314 55.522 28.3714 55.561 28.5114 55.612C28.7044 55.682 29.0074 55.598 29.2264 55.46C29.3084 55.495 29.3854 55.532 29.4554 55.565C29.5574 55.612 29.6714 55.626 29.7854 55.624C30.2044 55.739 30.6334 55.751 31.0634 55.751C31.3294 55.751 31.7004 55.646 31.8814 55.439C32.0724 55.218 31.7164 55.168 31.5724 55.168C31.2974 55.168 31.0194 55.168 30.7554 55.09C30.6894 55.07 30.6184 55.061 30.5494 55.061C30.5314 55.01 30.4934 54.967 30.4224 54.932C30.3264 54.885 30.2304 54.852 30.1334 54.819C30.1544 54.794 30.1804 54.776 30.1974 54.749C30.3424 54.511 30.0854 54.343 29.8674 54.341C29.8964 54.282 29.9144 54.212 29.9164 54.128C29.9184 54.071 29.8594 54.04 29.7774 54.017C29.7424 53.915 29.7114 53.81 29.6794 53.708C29.6174 53.495 29.5594 53.28 29.4914 53.067C29.4694 53.001 29.4024 52.967 29.3194 52.944C29.3924 52.518 29.4074 52.081 29.4224 51.682C29.4354 51.334 29.3824 50.983 29.4124 50.635C29.4174 50.588 29.4244 50.557 29.4324 50.531C29.6854 50.523 29.9384 50.543 30.1884 50.564C30.4874 50.587 30.8184 50.517 31.0594 50.33C31.2444 50.185 31.2154 49.982 30.9594 49.961C30.4724 49.922 29.8904 49.883 29.3854 49.967C29.3854 49.612 29.3854 49.254 29.3854 48.899C29.4494 48.889 29.5144 48.876 29.5794 48.842C30.8434 48.244 32.0464 47.504 33.2014 46.711C33.3474 47.115 33.4154 47.557 33.4724 47.979C33.4844 48.063 33.4864 48.145 33.4954 48.227C33.3414 48.262 33.1814 48.293 33.0304 48.334C32.8974 48.369 32.6664 48.463 32.5614 48.607C32.4174 48.718 32.3324 48.869 32.3994 49.046C32.4114 49.077 32.4284 49.101 32.4424 49.13C32.4214 49.226 32.3994 49.319 32.3764 49.409C32.1584 49.335 31.8314 49.44 31.6414 49.507C31.6074 49.519 31.0834 49.734 31.2674 49.827C31.6904 50.046 32.0704 50.329 32.4134 50.659C32.4304 50.686 32.4594 50.714 32.4814 50.741C32.1204 50.911 32.1714 51.237 32.5044 51.329C32.5044 51.417 32.5044 51.505 32.5044 51.593C32.5044 51.769 33.1284 51.718 33.4864 51.536C33.7714 51.87 34.0894 52.046 33.9914 52.679C33.9224 53.126 35.1584 52.902 35.2174 52.511C35.2664 52.197 35.2524 51.95 35.1674 51.726C35.5864 51.576 35.9784 51.339 36.1414 50.986C36.2164 50.959 36.2874 50.927 36.3494 50.892C36.5764 50.8 36.7494 50.662 36.7054 50.521C36.6684 50.404 36.2954 49.667 35.9984 49.072C36.1364 49.039 36.2794 48.99 36.4364 48.904C36.6244 48.802 37.0264 48.603 37.1754 48.388C37.2974 48.439 37.4654 48.447 37.6474 48.427C37.5734 48.585 37.1274 48.954 37.0714 49.079C36.9474 49.356 37.4794 49.739 37.6924 49.915C37.5754 50.058 37.4974 50.224 37.4904 50.438C37.4864 50.543 37.5134 50.626 37.6204 50.672C38.1514 50.912 38.7404 50.813 39.1404 50.471C39.1654 50.467 39.1914 50.461 39.2174 50.457C39.2124 50.637 39.1724 50.811 39.0874 50.988C38.9744 51.226 39.5144 51.197 39.6004 51.183C39.8414 51.148 40.1944 51.046 40.3104 50.804C40.4434 50.521 40.4784 50.226 40.4394 49.923C40.7674 49.73 41.0774 49.501 41.3974 49.304C41.4984 49.24 41.6064 49.175 41.7164 49.115C41.7794 49.111 41.8424 49.105 41.8974 49.094C41.9984 49.076 42.0824 49.074 42.1634 49.076C42.1764 49.18 42.1634 49.299 42.1584 49.371C42.1464 49.533 42.2554 49.631 42.4054 49.666C42.6324 49.721 42.7334 49.826 42.7594 49.961C42.5574 50.053 42.3554 50.156 42.1514 50.283C41.9614 50.4 41.8754 50.664 42.0014 50.853C42.3784 51.415 43.1244 51.708 43.6464 51.097C43.8024 50.913 43.9084 50.697 44.0194 50.495C44.1794 50.388 44.2854 50.235 44.3084 50.087C44.4384 49.958 44.5994 49.87 44.8374 49.872C45.0904 49.874 45.3404 49.884 45.5924 49.905C45.8024 49.923 45.9584 50.055 45.9494 49.884C45.9584 50.04 45.7744 50.277 45.7124 50.419C45.4514 51.007 45.5904 51.569 46.0344 52.021C46.4384 52.433 47.5994 51.919 47.1564 51.47C47.0994 51.411 47.0554 51.359 47.0174 51.304C47.3474 51.234 47.6754 51.05 47.6334 50.837C47.4814 50.089 48.0384 50.032 48.6204 49.946C48.7774 49.921 48.9304 49.884 49.0744 49.827C49.0814 49.835 49.0894 49.845 49.0964 49.854C49.2174 50.006 49.5934 49.942 49.7424 49.893C50.4454 49.668 51.0844 49.67 51.5094 48.981C51.5834 48.862 51.5514 48.786 51.4664 48.743C51.5034 48.634 51.4674 48.52 51.3144 48.425C50.9074 48.173 50.8034 48.116 50.3464 48.068C50.2584 48.06 50.1744 48.074 50.0904 48.089C50.0464 48.009 50.0064 47.929 49.9674 47.847C49.9844 47.802 49.9724 47.759 49.9144 47.726C49.9104 47.72 49.9094 47.714 49.9074 47.706C50.2674 47.786 50.7234 47.614 50.8224 47.237C50.9564 46.731 51.9444 46.729 52.3044 46.294C52.4774 46.085 52.4324 45.796 52.1494 45.716C51.3534 45.491 50.4844 45.579 49.8264 45.03C49.6244 44.862 49.2984 44.95 49.0834 45.03C48.7854 45.139 47.2914 45.05 46.2974 44.745C46.3884 44.716 46.4754 44.677 46.5544 44.618C47.1804 44.159 47.1904 43.663 47.1834 43.073C47.6754 43.231 48.1574 43.411 48.3134 43.741C48.5194 44.173 49.1634 44.044 49.4394 43.747C49.9824 43.169 51.3734 43.927 51.7594 44.585C51.8504 44.737 52.0314 44.78 52.2244 44.763C52.2984 44.906 52.4044 45.033 52.5724 45.134C52.8924 45.322 54.0354 44.845 53.5584 44.566C53.0824 44.285 53.4424 43.336 53.5494 42.855C53.6484 42.764 53.7374 42.658 53.8054 42.52ZM45.6204 24.837C45.3004 24.715 44.9914 24.499 44.7004 24.23C44.7814 24.209 44.8604 24.188 44.9394 24.162C45.0264 24.246 45.1314 24.317 45.2764 24.352C45.6174 24.433 46.2234 24.439 46.5774 24.581C46.3314 24.57 46.0824 24.614 45.8154 24.735C45.7404 24.77 45.6764 24.803 45.6204 24.837ZM49.8794 46.488C49.8674 46.508 49.8584 46.525 49.8494 46.545C49.8534 46.531 49.8544 46.52 49.8564 46.508C49.8624 46.5 49.8724 46.494 49.8794 46.488ZM21.4794 23.621C21.4124 23.33 21.3994 23.043 21.3984 22.746C21.3984 22.55 21.0624 22.442 20.9264 22.415C20.6274 22.355 20.3084 22.392 20.0164 22.47C19.9084 22.499 19.7894 22.537 19.6724 22.587C19.6224 22.399 19.5644 22.217 19.5054 22.036C19.5794 22.005 19.6564 21.964 19.7354 21.913C20.1584 21.833 20.5884 21.624 20.6204 21.379C20.6344 21.276 20.6494 21.172 20.6684 21.069C20.7224 21.011 20.7744 20.954 20.8264 20.896C21.5634 21.792 22.2794 22.703 22.8984 23.675C22.6664 23.703 22.4474 23.741 22.2804 23.766C22.0304 23.805 21.7594 23.773 21.4794 23.714C21.4794 23.684 21.4854 23.654 21.4794 23.621ZM35.1234 35.791C35.5514 35.818 36.1834 35.791 36.5774 35.557C36.8544 35.391 37.1124 35.301 37.3484 35.27C36.9104 36.297 36.4714 37.336 36.1694 38.407C35.7074 37.491 35.0654 36.593 34.6224 35.786C34.7894 35.787 34.9494 35.783 35.1234 35.791ZM38.9764 37.311C38.9754 37.434 38.9674 37.557 38.9704 37.68C38.9704 37.709 38.9844 37.725 38.9884 37.75C38.9614 37.781 38.9374 37.814 38.9214 37.85C38.8124 37.893 38.7304 37.932 38.6934 37.955C38.1174 38.346 37.6774 38.85 37.2924 39.398C37.2324 39.418 37.1714 39.437 37.1084 39.453C37.3054 38.113 37.8134 36.834 38.3464 35.582C38.7334 35.943 38.9564 36.574 38.9764 37.311ZM26.2284 22.315C25.8934 22.778 25.6844 23.44 25.3054 23.775C25.5214 22.713 25.7114 21.647 25.8554 20.572C26.4424 21.01 26.7364 21.613 26.2284 22.315ZM31.5314 36.438C31.8234 36.469 32.1064 36.444 32.4214 36.418C32.6664 36.395 32.8954 36.26 33.1114 36.154C33.1894 36.115 33.2644 36.084 33.3424 36.047C33.9164 37.178 34.8044 38.293 35.2194 39.475C34.7694 39.375 34.3514 39.204 34.0204 38.977C33.4394 38.579 32.4584 38.539 31.4814 38.639C31.5474 37.91 31.5444 37.166 31.5314 36.438ZM21.7374 19.956C22.1274 20.032 22.5814 20.091 22.9634 19.936C23.3554 19.777 24.0404 19.822 24.7014 20.019C24.5724 21.156 24.3874 22.282 24.1674 23.403C23.4204 22.211 22.5284 21.11 21.6244 20.019C21.6744 19.977 21.7144 19.952 21.7374 19.956ZM21.7394 24.539C21.7224 24.533 21.7054 24.526 21.6894 24.52C21.7154 24.522 21.7424 24.525 21.7694 24.528C21.7604 24.531 21.7504 24.534 21.7394 24.539ZM26.5274 37.039C27.0484 37.043 27.5274 36.904 27.9934 36.76C28.4724 37.428 29.2374 37.772 29.9534 36.922C30.0654 36.789 30.1374 36.664 30.2014 36.557C30.2084 36.561 30.2144 36.561 30.2204 36.565C30.2404 36.571 30.2574 36.573 30.2764 36.577C30.2744 37.333 30.2554 38.087 30.1844 38.839C29.7084 38.937 29.2834 39.042 28.9784 39.124C28.4084 39.274 27.7314 39.331 27.0804 39.261C26.8624 38.535 26.6624 37.789 26.5274 37.039ZM44.1534 30.059C44.1574 30.077 44.1604 30.098 44.1634 30.116C44.1504 30.108 44.1334 30.091 44.1204 30.075C44.1314 30.068 44.1414 30.062 44.1534 30.059ZM27.1294 43.908C27.2514 43.976 27.4064 44.004 27.5704 44.004C27.5514 44.43 27.5384 44.858 27.5284 45.283C27.1954 44.705 26.8244 44.146 26.4224 43.611C26.6904 43.701 26.9334 43.799 27.1294 43.908ZM25.6664 44.631C25.9234 45.002 26.1644 45.385 26.3854 45.779C25.9434 45.517 25.5854 45.199 25.4354 44.754C25.5194 44.715 25.5964 44.676 25.6664 44.631ZM17.5914 45.961V45.963C17.5904 45.963 17.5904 45.963 17.5894 45.963C17.5894 45.963 17.5904 45.961 17.5914 45.961ZM25.7154 48.201C25.9094 48.117 26.0794 48.012 26.0384 47.902C25.7324 47.111 24.9014 46.781 24.0764 46.818C23.8424 46.66 23.5974 46.515 23.3474 46.382C23.3474 46.382 23.3474 46.38 23.3464 46.38C23.2194 46 23.1174 45.6 23.0324 45.193C23.3514 45.113 23.6244 44.97 23.8514 44.73C23.8524 44.726 23.8544 44.724 23.8574 44.72C23.9524 44.749 24.0464 44.779 24.1424 44.804C24.2794 45.921 25.5194 46.349 26.5644 46.822C26.5474 46.845 26.5334 46.867 26.5134 46.892C26.4164 47.033 26.5244 47.095 26.7084 47.105C26.5734 47.656 26.3944 48.191 26.2474 48.738C26.0714 48.555 25.8934 48.375 25.7154 48.201ZM31.3124 44.023C31.3124 44.025 31.3124 44.025 31.3114 44.025L31.3124 44.023ZM29.4504 50.486C29.4664 50.461 29.4734 50.469 29.4504 50.486V50.486ZM29.3864 47.885C29.3864 47.414 29.3864 46.946 29.3864 46.477C29.8044 46.135 30.0664 45.629 29.9724 45.067C29.9294 44.823 29.7984 44.645 29.8224 44.385C29.8314 44.28 29.8274 44.178 29.8154 44.08C29.8524 44.086 29.8894 44.09 29.9264 44.101C30.1134 44.167 30.1454 44.539 30.1724 44.693C30.2184 44.937 30.4404 45.029 30.6824 45.017C30.8924 45.189 31.1154 45.257 31.3634 45.369C31.4084 45.39 31.4614 45.396 31.5104 45.408C31.2154 45.806 31.7084 46.226 32.2924 46.164C31.3604 46.797 30.3944 47.379 29.3864 47.885Z" fill="#B29C9C"/>
</svg>
