<svg width="49" height="30" viewBox="0 0 49 30" fill="none" xmlns="http://www.w3.org/2000/svg">
<path d="M40.9 13.0161C40 14.2161 40 14.4161 38.5 14.0161C38.7 13.8161 38.8 13.6161 38.9 13.3161C40 13.0161 40.6 11.7161 40.5 10.4161C46.2 7.91605 47.1 7.71605 48.3 7.31605V5.41605C46.9 5.81605 42.7 8.11605 42 8.71605C41.6 8.91605 40.6 9.31605 40.3 9.41605C40 8.21605 39.4 7.31605 38.2 7.41605C38.5 6.51605 39.6 5.81605 40.6 5.81605C41.8 5.81605 47.1 3.21605 48.3 2.71605V0.0160522C48.3 0.0160522 38.5 6.91605 35.1 6.31605C32.4 5.81605 29.7 5.01605 26.9 4.91605C21.4 4.51605 21.7 5.71605 12.5 4.11605C11.7 4.01605 11.2 4.11605 10.4 4.41605C1.2 6.91605 0.600002 6.71605 0.500002 8.11605C0.300002 13.5161 8.7 7.21605 16 10.0161C18.4 10.9161 12.5 14.6161 12.5 17.9161C12.5 19.4161 12.5 21.7161 12.3 23.3161C12.2 23.7161 12.3 24.2161 12.6 24.6161C13.2 25.8161 13.7 27.0161 14.1 28.3161C14.1 28.3161 14.9 29.8161 16.3 28.7161C19.2 32.5161 20.5 26.7161 19 25.1161C18.4 24.5161 18.7 24.3161 18.9 22.0161C19 21.3161 19.2 20.6161 19.7 20.1161C19.6 21.0161 19.4 23.9161 20 24.5161C23.5 30.7161 25.6 28.5161 25.3 26.7161C25.3 26.7161 25 25.7161 24 24.9161C23.7 24.7161 23.5 23.4161 23.5 23.2161C23.9 19.4161 31.4 23.7161 36.9 18.2161C40.1 15.0161 44.2 13.8161 48.4 13.8161V10.2161C44 11.4161 42.1 11.6161 40.9 13.0161ZM3.7 8.31605C3.5 8.41605 3.3 8.61605 3.1 8.71605C2.3 9.11605 1.9 8.31605 2.3 8.01605L5.6 7.31605C5.6 7.41605 5.6 7.91605 5.9 8.21605C5.2 8.31605 4.4 8.01605 3.7 8.31605ZM9.9 7.21605C9.3 7.21605 8.7 7.31605 8.1 7.61605C7.8 7.71605 7.6 7.91605 7.3 7.91605C7 7.91605 6.7 7.71605 6.7 7.51605C6.7 7.01605 7.2 6.91605 7.7 6.91605C10.1 6.71605 10.2 6.21605 11.2 6.01605C11.2 6.31605 11.3 6.81605 11.4 7.21605C10.9 7.31605 10.4 7.21605 9.9 7.21605ZM34.3 8.51605C34.6 8.21605 34.9 8.31605 35.3 8.31605C38.2 8.21605 36.8 12.1161 35.6 10.4161C35.3 9.91605 34.5 9.91605 34.2 9.41605C34 9.11605 34.1 8.71605 34.3 8.51605ZM31.4 11.7161C32 11.5161 32.7 11.2161 33.3 11.3161C33.3 11.7161 33.3 12.0161 33.4 12.4161C32.9 12.5161 32.7 12.5161 32.2 13.0161C27.5 13.9161 26.5 14.1161 25.3 14.7161C24.3 15.2161 23.1 16.2161 21.9 15.7161C21.4 15.4161 21 14.7161 21.2 14.2161C22 12.5161 28.2 12.7161 31.4 11.7161ZM21.8 12.4161C22.3 12.0161 24 10.5161 24.6 10.7161C24.7 10.8161 24.8 10.9161 25 11.0161C25.3 11.1161 25.4 11.3161 25.5 11.6161C23.2 11.9161 22.8 12.2161 21.8 12.4161ZM30.3 7.71605C31.3 7.81605 31.5 8.11605 33.3 8.11605C33 8.51605 33 9.11605 33.2 9.51605C32.8 9.51605 32.4 9.41605 32.1 9.61605C31.5 9.81605 31.5 10.0161 30.9 9.71605C30.3 9.51605 29.3 9.21605 29.2 8.61605C29.1 8.21605 29.5 7.71605 30.3 7.71605ZM28.2 8.91605C28.5 9.31605 29.1 10.0161 28.6 10.1161C26.7 10.7161 26.4 11.3161 26.4 11.3161C26.3 11.3161 26.4 11.2161 26.4 11.2161C26.2 10.7161 25.4 10.2161 25.4 10.1161C25.4 9.81605 26 9.91605 26.2 9.71605C26.3 9.71605 27.4 9.01605 27.9 8.81605C28 8.71605 28.2 8.81605 28.2 8.91605ZM20.6 7.41605C21 6.91605 21.8 7.01605 22.5 7.01605C22.6 7.01605 27.6 7.71605 27.7 7.71605C27.4 7.91605 26.6 8.41605 26.2 8.61605L26.3 8.51605C25.3 8.51605 21.7 8.41605 20.6 8.61605C20.3 8.31605 20.3 7.71605 20.6 7.41605ZM24.5 9.51605C24.5 9.61605 24.4 9.61605 24.4 9.71605C23.4 9.71605 22.5 10.6161 20.8 11.9161C20.4 11.8161 20 11.3161 20 10.5161C20.1 9.51605 20.6 9.51605 24.5 9.51605ZM13.3 6.81605C13.1 6.91605 13.2 7.21605 13.1 7.41605C12.7 7.91605 12.3 6.51605 12.3 5.91605C12.3 5.21605 12.9 5.31605 13.5 5.41605C15.3 5.61605 17 6.71605 18.8 6.61605C19.3 6.61605 19.7 6.51605 20.1 6.61605C19.4 7.31605 19.3 8.21605 19.6 9.01605C19.3 8.81605 19 8.61605 18.7 8.51605C17.5 7.61605 14 6.51605 13.3 6.81605ZM14.1 23.2161C14 23.0161 13.9 18.8161 13.8 18.5161C14 18.7161 14.3 18.7161 14.6 18.7161C14.2 20.0161 14.2 21.3161 14.6 22.6161C14.9 23.5161 14.3 23.6161 14.1 23.2161ZM14.8 17.8161C14.2 18.0161 13.7 17.2161 14.1 16.4161C14.3 15.9161 18.8 11.0161 18.8 11.0161C18.9 10.9161 19 10.8161 19.1 10.7161C19.1 11.3161 19.3 11.8161 19.6 12.2161C18.3 13.5161 15.9 14.2161 15.6 16.2161C15.4 16.8161 15.5 17.6161 14.8 17.8161ZM16.5 25.6161C15.1 25.3161 15.8 22.2161 15.8 21.2161C16.1 21.5161 16.5 21.7161 17 21.7161C16.4 23.2161 16.6 23.9161 17.2 25.3161C17.2 25.6161 16.9 25.6161 16.5 25.6161ZM17.7 28.1161C17.6 27.9161 17 26.8161 16.9 26.6161C17.3 26.6161 17.6 26.5161 17.8 26.3161C18 26.9161 17.9 26.8161 18.2 27.3161C18.3 27.5161 18.4 27.6161 18.3 27.8161C18.3 28.2161 17.9 28.4161 17.7 28.1161ZM17.2 20.1161C17.2 20.2161 17.3 20.4161 17.2 20.5161C17.1 20.7161 16.5 20.6161 16.4 20.1161C16.2 19.3161 16.9 18.6161 18.9 16.0161C19 16.1161 19 16.1161 19.1 16.1161C19.2 16.4161 19.3 16.6161 19.5 16.8161C18.9 17.3161 17.1 19.4161 17.2 20.1161ZM20.1 16.0161C20 15.8161 20 15.7161 19.9 15.6161C19.8 15.4161 19.4 15.3161 19.4 15.0161C19.4 14.3161 19.8 13.7161 20.5 13.6161C20.1 14.0161 20.2 15.4161 21.1 16.2161C20.7 16.5161 20.3 16.5161 20.1 16.0161ZM21.8 24.1161C21.7 24.3161 21.5 24.4161 21.3 24.3161C20.3 24.1161 21.2 22.8161 21.6 19.2161C21.8 19.6161 22.2 20.0161 22.7 20.2161C22.1 21.2161 21.5 22.2161 21.8 23.3161C21.8 23.6161 21.9 23.8161 21.8 24.1161ZM23.9 27.1161C23.5 27.1161 22.1 25.5161 21.8 25.2161C22 25.1161 22.1 25.0161 22.3 24.9161C22.8 25.5161 23.8 26.4161 23.9 27.1161ZM33.5 15.0161C30.5 15.9161 27.5 17.2161 24.7 18.8161C24.3 19.1161 23.8 19.3161 23.3 19.2161C22.3 19.1161 21.9 17.5161 23.2 17.0161C23.6 16.8161 24 16.8161 24.3 16.7161C25.9 16.4161 27.4 15.9161 28.8 15.1161C31.3 13.8161 31 14.4161 32.1 14.1161C32.4 14.0161 32.6 13.8161 32.8 13.6161C33 13.4161 33.1 13.2161 33.6 13.3161C33.8 13.7161 34 14.1161 34.2 14.5161C34.1 14.8161 33.7 14.9161 33.5 15.0161ZM35.4 14.5161C34.8 13.7161 33.9 11.7161 34.5 10.9161C34.6 11.0161 34.8 11.0161 34.8 11.1161C35.3 11.9161 36.1 12.1161 36.8 11.8161C37 12.3161 37.1 12.7161 37.4 13.0161C37.3 13.0161 37.2 13.0161 37.1 13.0161C36.2 12.9161 35.5 13.4161 35.4 14.5161ZM37.4 15.5161C37.3 15.7161 36.8 15.6161 36.6 15.5161C36.3 15.3161 36.3 14.4161 36.5 14.1161C36.7 13.8161 37.3 13.8161 37.4 14.0161C37.6 14.2161 37.5 15.4161 37.4 15.5161ZM37.6 11.0161C38.1 10.3161 38.1 9.31605 37.8 8.71605C38.2 8.61605 38.8 8.31605 39 8.71605C39.6 9.61605 39.9 11.3161 39.1 12.1161C38.3 13.0161 38 12.0161 37.6 11.0161Z" fill="#B29C9C"/>
</svg>
