<svg width="61" height="53" viewBox="0 0 61 53" fill="none" xmlns="http://www.w3.org/2000/svg">
<path d="M51.8591 42.555H46.9381C45.7121 37.948 41.3431 25.964 29.0641 25.964C20.0161 25.964 10.7461 37.153 10.7461 37.153C10.7461 37.153 9.72805 37.438 8.32705 37.962C7.32005 33.514 6.49205 36.503 6.06005 38.902C3.31505 40.166 0.367054 42.05 0.277054 44.332H47.3431C47.3431 44.332 47.3331 44.272 47.3121 44.163H51.8651C53.1631 44.147 56.9241 44.464 58.4681 45.997C58.9321 46.456 59.1571 46.987 59.1571 47.617C59.1571 50.845 51.9311 50.943 51.8581 50.943H20.2151C19.7711 50.943 19.4111 51.302 19.4111 51.746C19.4111 52.19 19.7711 52.55 20.2151 52.55H51.8591C52.2231 52.55 60.7651 52.494 60.7651 47.616C60.7651 46.549 60.3731 45.62 59.5991 44.853C57.2591 42.533 52.0651 42.554 51.8591 42.555ZM5.48505 42.672C5.18905 42.672 4.94905 42.431 4.94905 42.136C4.94905 41.84 5.18905 41.602 5.48505 41.602C5.78105 41.602 6.02105 41.841 6.02105 42.136C6.02105 42.431 5.78105 42.672 5.48505 42.672Z" fill="#B29C9C"/>
<path d="M54.4151 1.276L56.316 2.954L54.191 5.362L51.369 2.87L40.451 15.234L40.94 15.665L42.524 20.104L39.87 23.11L40.516 23.069L42.8671 20.405L47.466 21.429L47.9561 21.861L58.875 9.498L56.053 7.006L58.1791 4.6L60.08 6.278L60.765 5.502L55.1031 0.5L54.4151 1.276Z" fill="#B29C9C"/>
</svg>
