<svg width="49" height="42" viewBox="0 0 49 42" fill="none" xmlns="http://www.w3.org/2000/svg">
<path d="M21.1 35.6C23.1 34.7 25.1 37.1 23.8 41.8H34.9C35 41.6 35.1 41.4 35.4 41.4C36 41.4 36 41.1 36.3 40.6C36.6 40 37.4 39.7 38.5 39.2C39.3 38.8 39.7 38.4 40.1 39.2C41.3 41.2 38.7 41 37.7 41.8H48.2C47.3 40.3 42.9 38.5 44.4 31.5C44.9 19.9 41.4 21.4 43.5 15.1C44.1 13.4 43.1 11.5 41.3 11.1C41.2 11.1 40.7 10.9 40.3 10.6C39.7 9.40001 38.8 9.00001 38.3 9.20001C38.3 9.20001 36.9 9.10001 36.2 8.20001C36.7 7.20001 36.4 6.30001 35.6 5.90001C35.6 5.60001 35.6 3.80001 33.7 4.40001C33.7 4.40001 31.8 4.90001 32.1 3.10001C32.4 1.40001 31.3 0.800007 30.9 1.00001C30.9 1.00001 24.2 4.00001 22.3 2.10001C22 1.80001 21.6 1.50001 21.2 1.40001C18.1 1.10001 7.5 7.62939e-06 2.9 12C2.9 12 -6 30.6 13.6 36C13.6 36 16.9 37.5 21.1 35.6ZM22.6 29.7L23.7 28.4C23.9 28.1 24.5 27.7 24.4 27.3C24.3 26.9 23.8 27 23.5 26.9C23.1 26.7 23.2 26.3 23.5 26C23.9 25.5 24.5 25.2 24.6 24.6C24.7 24.3 24.6 23.9 24.7 23.6C25 22.6 26.3 22.4 27.1 23.4C27.4 23.8 27.9 24.9 28 25.4C28 26 27.3 27.3 26.8 27.5C26.5 27.6 26.2 27.5 26 27.6C25.6 27.7 25.4 28.1 25.3 28.5C24.3 29.9 23.2 30.1 22.6 29.7ZM26.8 31.8C26.6 32.2 26.5 32.6 26.1 32.8C25.6 33 25.1 32.7 24.9 32C24.6 31 25.4 30.1 25.9 30C27.6 29.8 27.1 28.3 27.7 27.3C28.1 26.6 28.9 26.2 28.8 25.3C33.5 27.3 29.5 26 28.7 29.6C28.5 30.9 27.6 30.4 26.8 31.8ZM28.1 33.9C27.7 33.7 27.6 33.2 27.7 32.8C28 32 29 31.6 29.2 30.7C29.4 29.4 28.5 30.2 30.9 27.6C31.5 26.9 32.3 27.5 33.1 28C34.4 28.8 34.2 28.7 33.2 29C30.7 29.8 32.3 31.5 31 32.2C30.7 32.4 30.3 32.3 30 32.5C29.3 33.1 29 34.3 28.1 33.9ZM31.7 32.6C32.1 32.3 32.5 32 32.5 31.5C32.5 31.2 32.2 30.9 32.4 30.7C32.5 30.5 32.8 30.5 33.1 30.5C33.8 30.5 34.4 30.3 35 30C35.3 29.8 35.4 30 35.7 30.3C35.9 30.5 36.2 30.8 36.3 31.1C36.6 31.6 36.4 31.8 35.9 32C33.3 33 34.5 32.5 33.7 32.5C33.5 32.5 33.4 32.7 33.4 32.9C33.3 33.7 33.7 33.3 32.5 34.4C31.9 34.9 31.6 35.8 31.4 36.5C30.4 35.3 30.5 33.6 31.7 32.6ZM32.3 37.1C33 35.9 32.7 33.8 34.2 33.7C34.5 33.7 35.4 33 35.8 33C36.1 32.9 36.6 33.1 36.9 33.3C37.2 33.5 37.7 34.7 37.4 35C37.2 35.2 36.9 34.9 36.6 35C36.3 35.1 36.2 35.5 35.9 35.6C35.6 35.8 35.1 35.4 34.8 35.7C34.5 35.9 34.6 36.3 34.4 36.6C34.2 36.9 32.9 37.6 32.7 37.8C32.3 37.8 32.1 37.6 32.3 37.1ZM38.9 37.2C38.7 37.5 38.1 37.4 37.8 37.7C37.6 37.8 37.6 38 37.4 38.2C37 38.5 36.2 38.1 36 38.6C35.9 38.8 36 39.1 36.1 39.3C36.2 39.5 36.2 39.8 35.9 39.9C35.7 40 35.5 39.8 35.4 39.6C34.7 39.2 34.2 39.9 33.8 40.5C32.9 42 32 41.5 32.5 40.5C33 39.5 33.1 38.2 34.2 38C34.8 37.9 34.8 36.7 35.3 36.5C35.4 36.5 35.6 36.5 35.7 36.6C36.1 35.7 39.6 36.1 38.9 37.2ZM40.5 12.2C41.2 12.8 41.9 13.2 41.9 13.2C44.1 15.5 39 16.9 34.8 21.1C32.9 23.1 31.6 22.6 29.5 21.4C28.3 20.7 25.8 20.2 23.9 19.9C23.8 19.1 23.6 18.6 23.3 18C25.9 17.7 27.9 16 27.9 15.2C27.8 14.2 28.2 12.2 29.4 13.9C29.9 14.7 30.5 15.2 31 15.6C30.5 17.2 34.3 19.2 34.8 17.1C35.7 17.2 36.2 16.7 36.4 16.1C37.3 16.3 38.2 15.8 38.2 14.6C38.9 14.6 39.5 14.1 39.5 13.2C40 13.1 40.4 12.7 40.5 12.2ZM33.6 14.2L33.8 14C34.5 13.5 34.9 14.2 35.3 15C35.4 15.1 35.5 15.5 35.5 15.6C35.6 16.7 32.3 15.1 33.6 14.2ZM33.8 16.9C33.4 17.2 32.4 16.5 32.1 16.1C31.8 15.7 32.1 15.5 32.4 15.2C33.4 14.4 34.2 16.6 33.8 16.9ZM34.5 9.20001C34.4 9.20001 34.3 9.20001 34.3 9.10001C34.4 9.20001 34.4 9.20001 34.5 9.30001C34.2 9.80001 33.9 9.80001 33.6 9.50001C33.5 9.40001 32.9 8.90001 32.6 8.40001C32.1 7.50001 33.3 7.60001 34.1 8.00001C34.6 8.30001 34.7 8.70001 34.5 9.20001ZM33.4 9.70001C33.8 10 33.8 10.3 33.7 10.7C33.3 11.5 32.8 11.9 31.5 10C31.1 9.30001 31.4 9.10001 32.2 9.20001C32.2 9.20001 33.4 9.60001 33.4 9.70001ZM32.4 11.3C32.9 11.6 32.9 12 32.7 12.3C32.7 12.3 32.7 12.4 32.6 12.4C32.1 13.3 31.3 12.6 30.7 11.7C30.4 11.2 30.4 10.8 31 10.9C31.5 10.9 32.2 11.2 32.4 11.3ZM31.7 12.9C32 13.1 32 13.4 32 13.7C32 13.8 32 13.8 31.9 13.9C31.7 14.2 31.5 14.4 31.1 14.2C30.6 13.9 30.1 13.2 30.1 13.1C29.8 12.2 31.1 12.5 31.7 12.9ZM38 10.5C38.7 9.80001 39.2 10.4 39.5 11.3C40 12.5 39.1 12.4 37.9 11.4C37.5 11 37.6 10.8 38 10.5ZM36.8 11.5C37.4 11.1 37.8 11.4 38.1 12C38.2 12.2 38.4 12.6 38.4 12.9C38.5 13.7 37.8 13.5 37.1 13.1C36.9 13 36.6 12.8 36.5 12.6C36.1 12.2 36.3 11.7 36.8 11.5ZM36.4 12.8C37.3 13.9 37.8 15.9 35.7 14.6C35 14.2 34.4 13.5 35 13C35.2 12.7 35.9 12.3 36.4 12.8ZM35 6.90001C35.4 7.10001 35.3 7.50001 35.2 7.80001C34.8 8.50001 34.3 8.10001 33.8 7.50001C33.5 7.20001 33.4 6.90001 33.4 6.80001C33.3 6.20001 34.5 6.60001 35 6.90001ZM24.1 7.00001C24.1 7.00001 26.3 6.40001 27.1 5.40001C28.2 4.10001 30.2 7.50001 30.9 5.50001C31.1 4.70001 31.7 5.30001 33.1 5.50001C32.6 5.70001 32.3 6.20001 32.3 6.70001C31.7 6.80001 31.2 7.30001 31.3 8.10001C30.4 8.20001 29.9 9.00001 30.3 10C29.7 10.3 29.4 10.9 29.6 11.6C29.3 11.8 29.2 12 29.1 12.1C28 11.6 26.6 12.4 26.7 15C26.6 15.2 26.3 15.5 25.9 15.8C24.1 16.2 24.5 15.6 23.5 14.4C24.8 13.7 27 12.8 26 10.7C26 10.4 24.6 7.70001 24.1 7.00001ZM21.7 6.60001C23.2 6.90001 23.7 8.40001 25 10.8C25.5 11.8 25.5 12.2 24.4 12.8C23.9 13.1 21.1 14.7 20.6 14.9C20.3 13.4 18.8 10.6 21.7 6.60001ZM4 16.4C6.6 16.9 7.3 17.8 7.3 17.9C8.3 19.2 9.7 18.8 10.9 17.7C11.5 18.5 12.5 19.4 12.3 20.3C11.1 20.1 10.3 20.4 10.3 20.4C8.2 21 7.1 19.5 7.1 19.4C7 19.2 6.7 19.1 6.5 19.2C4.9 20 4 19.3 3.9 19.2C3.8 18.3 3.8 17.4 4 16.4ZM13.3 27.4C12.8 27.4 12.4 26.9 12.2 26.4C13.6 25 13.6 25.1 11.7 25.9C11.5 25.8 11.2 25.6 11 25.3C9.2 22.7 7.7 23.9 6.7 22.1C6.5 21.5 5.6 21.9 5.8 22.4C5.8 22.5 6.2 23.5 7.3 24C7.1 24.4 7.1 24.8 6.8 24.9C6.7 24.9 6.5 25 6.4 24.9C6.1 25.4 6.2 25.2 5.9 25.7C6.8 26.2 7.9 25.6 8 24.7C8 24.5 8.1 24.4 8.2 24.3C10 25 10 26.1 11.1 26.7C11.1 26.8 11.2 26.8 11.3 26.9C11.5 27.4 12.1 28.2 12.9 28.4C13 28.7 13.3 29.3 13.9 29.6C13.7 30.3 13.3 31.7 13.3 33.1C13.1 33.1 12.8 33 12.6 33C11.1 31.2 10.4 28.8 10.4 28.8C10.4 28.7 10.3 28.6 10.2 28.5C9.1 27.5 9.5 25.9 9.5 25.9C9.6 25.3 8.7 25.1 8.6 25.7C8.6 25.8 8.1 27.7 9.5 28.9C9.6 29.4 10.1 30.8 11 32.2C6.8 30.2 3.8 24.6 3.8 20.2C4.4 20.4 5.3 20.6 6.5 20.1C8.4 22.2 10.5 20.8 12.2 21.1C12.7 22.5 13.8 25 15.3 25.2C15.1 26 14.7 27.5 14.3 28.5C14 28.3 13.9 28 13.8 27.9C14.7 26 14.8 26.1 13.3 27.4ZM14.3 32.3C14.5 30.6 15 29.4 15 29.4C15.5 28.4 16.5 25.2 16.4 24.7C16.3 24.5 16.1 24.3 15.8 24.4C14.7 24.7 13.5 22 13.1 20.9C13.8 19.4 12.1 17.9 11.4 16.8C11.4 16.8 11.4 16.8 11.4 16.7C11.1 16.1 10.9 15.7 10.9 15.3C10.9 15 10.7 14.9 10.4 14.9C9.6 14.9 10 16.2 10.5 17C9.8 17.7 8.8 18.3 8.2 17.5C8.2 17.4 7.3 16.2 4.2 15.7C4.6 13.4 5.5 10.8 7.8 8.60001C8.2 9.00001 9 9.30001 9.2 9.60001C9.1 9.70001 8.6 10 8 10C7.4 10.1 7.5 11 8.1 10.9C9.5 10.5 10.6 9.60001 9.5 8.50001C9.2 8.30001 8.6 8.00001 8.4 7.80001C10.7 5.90001 12.4 5.20001 14.2 4.90001C13.8 5.00001 13.2 6.40001 13.1 6.90001C13 7.20001 12.8 7.40001 12.5 7.50001C10.6 8.20001 10.4 8.40001 10.4 8.50001C10.2 8.90001 10.8 9.40001 11.2 9.00001C12.5 8.30001 13.7 8.40001 14.1 7.00001C14.2 6.60001 14.4 6.00001 14.8 5.60001C15 5.40001 15 5.20001 14.8 5.00001C14.8 4.90001 14.7 4.90001 14.6 4.90001C15 4.80001 15.5 4.80001 16 4.80001C14.7 6.10001 14.9 6.80001 14.9 6.90001C15.1 7.70001 15.1 8.40001 14.8 8.70001C12.1 11.6 14.7 14.9 15.4 13.9C15.6 13.7 15.5 13.4 15.3 13.3C15.3 13.3 14.7 12.9 14.5 11.9C14 9.50001 16.7 9.80001 15.8 6.70001C15.7 6.20001 16.8 5.20001 17.2 4.90001C18.4 5.10001 19.6 5.50001 20.5 6.50001C20.5 6.50001 18 10 19.1 13.7C19.6 15.2 19.8 18.4 22.7 19C22.7 19 24 21.8 22.1 24.3C20.2 26.6 20.8 28.4 19.8 30.2C19 28.9 18.4 27.4 18.2 26.9C18.6 25.5 19 25.1 20.2 22.8C20.6 22.3 19.7 21.8 19.4 22.4C18.8 23.4 15.7 28.2 17 32.6C17 32.6 17 32.6 17 32.7C16.3 33 15.4 33.2 14.3 33.2C14.2 32.7 14.2 32.5 14.3 32.3Z" fill="#B29C9C"/>
<path d="M11.2 10.4C11.2 10.4 11.3 10.4 11.6 10.4C12.6 10.7 13.4 9.90001 13.2 9.60001C13.1 9.20001 12.6 9.20001 12.4 9.50001C12.4 9.50001 12.3 9.70001 11.9 9.60001C10.8 9.30001 10.4 9.90001 10.4 9.90001C10 10.5 10.9 10.9 11.2 10.4Z" fill="#B29C9C"/>
<path d="M16.1 16C16.6 16.3 17 17 17.1 17.2C17.3 19.6 19.1 20.5 19.2 20.6C19.7 20.9 20.2 20.1 19.6 19.8C19.5 19.8 18.1 19.1 18 17.1C18 16.7 17 15.6 16.7 15.4C16.7 15.4 16.5 15.2 16.6 14.4C16.7 13.7 16.6 13.1 16.4 12.5C16.3 12.2 16.3 12 16.4 11.8C16.8 11.3 16 10.8 15.6 11.3C15.3 11.7 15.3 12.2 15.5 12.8C15.9 13.9 15.3 15.4 16.1 16Z" fill="#B29C9C"/>
<path d="M20.6 19.8C20 20.8 18.5 21.6 17.5 21.8C17.1 21.9 15.9 20.2 15.6 18.1C15.1 15.1 13.3 14.8 12.8 13.8C11.8 12.1 10 11.2 8.1 11.4C7.5 11.6 7.5 12.4 8.2 12.4C8.2 12.4 8.3 12.4 8.5 12.4C11.3 12.3 11.7 14.5 12.7 15.2C13.9 16.1 14.3 16.7 14.7 18.4C15 19.9 16.2 22.9 17.7 22.7C19.1 22.5 21.8 20.8 21.5 20C21.3 19.5 20.8 19.5 20.6 19.8Z" fill="#B29C9C"/>
</svg>
