<svg width="15" height="41" viewBox="0 0 15 41" fill="none" xmlns="http://www.w3.org/2000/svg">
<path d="M2.33591 4.49852C2.50705 4.92636 2.59262 4.58409 2.76375 4.32738C3.10603 3.72841 3.87614 3.30057 4.56068 3.30057C4.81739 3.30057 5.07409 3.30057 5.24523 3.30057C5.41637 3.30057 5.75864 3.12943 5.84421 2.95829C5.92977 2.70159 5.84421 2.35932 5.92977 2.10261C6.10091 1.5892 6.61432 1.5892 7.12773 1.5892C7.47 1.5892 10.3793 1.67477 10.636 1.5892C11.0639 1.41807 11.1494 0.990225 10.7216 0.73352C10.4649 0.647952 6.69989 -0.0365932 6.27205 0.134543C5.92977 0.305679 5.84421 0.647952 5.67307 0.904657C5.3308 1.3325 4.73182 1.50363 4.13284 1.5892C2.76375 1.76034 1.39466 1.67477 1.90807 3.215C2.07921 3.64284 2.16478 4.07068 2.33591 4.49852Z" fill="#B29C9C"/>
<path d="M7.81227 2.78716C7.55557 2.61602 7.38443 2.10262 7.04216 2.10262C6.69989 2.10262 6.52875 2.44489 6.52875 2.70159C6.52875 3.04387 6.52875 3.30057 6.52875 3.64284C6.10091 5.78205 1.48023 3.81398 3.02046 6.55216C3.19159 6.80887 3.10602 7.23671 3.10602 7.49341C3.10602 7.23671 4.56068 6.98 4.81739 6.89443C5.67307 6.63773 7.81227 5.78205 8.58239 5.35421C10.636 4.41296 10.9783 5.52534 12.5185 5.52534C12.7752 5.52534 13.1175 5.43977 13.2886 5.26864C13.5453 5.0975 13.6309 4.75523 13.5453 4.49852C13.3742 4.32739 13.2031 4.15625 12.9464 4.07068C12.7752 3.98511 12.5185 3.98512 12.2618 3.89955C11.5773 3.81398 10.8072 3.64284 10.1226 3.47171C9.86591 3.38614 8.06898 3.04387 7.81227 2.78716Z" fill="#B29C9C"/>
<path d="M9.86591 7.06555C9.86591 6.80885 9.95148 6.46658 9.78034 6.29544C9.52364 5.95317 8.41125 6.03874 8.15455 6.46658C8.06898 6.63771 8.06898 6.89442 7.98341 7.15112C7.72671 7.57896 7.2133 7.4934 6.78546 7.57896C5.84421 7.83567 5.24523 9.03362 4.30398 9.11919C3.96171 9.20476 3.61943 9.11919 3.36273 9.3759C3.27716 9.54703 3.27716 9.80374 3.36273 9.97487C3.4483 10.2316 3.705 10.3171 3.705 10.5739C3.705 10.9161 3.4483 11.4295 3.705 11.5151C4.73182 12.0285 5.75864 10.3171 6.95659 10.3171C7.12773 10.3171 7.38444 10.3171 7.55557 10.146C7.72671 9.97487 7.64114 9.6326 7.72671 9.46146C8.06898 8.69135 9.52364 9.3759 12.2618 10.0604C12.8608 10.2316 13.5453 10.4027 13.9732 10.745C14.401 11.0873 14.6577 10.9161 14.6577 10.4883C14.7433 9.54703 14.0588 8.52021 13.1175 8.26351C12.2618 8.00681 9.95148 8.52021 9.86591 7.06555Z" fill="#B29C9C"/>
<path d="M9.69478 10.3171C8.15455 10.5739 8.75352 12.1996 6.44318 12.7131C4.64625 13.1409 3.705 13.2265 3.53387 13.8254C3.4483 14.1677 3.96171 15.7935 4.13284 15.9646C4.47512 16.2214 5.07409 15.7935 5.3308 15.6224C8.06898 14.4244 10.8072 13.7399 13.5453 15.3657C13.802 15.5368 14.0587 15.7079 14.3155 15.5368C14.6577 15.3657 14.6577 14.9378 14.4866 14.5956C13.9732 13.6543 10.1226 12.3708 9.01023 12.1141C9.43807 12.1141 9.78034 12.1141 10.2082 11.9429C11.3206 11.5151 10.7216 10.2316 9.69478 10.3171Z" fill="#B29C9C"/>
<path d="M14.2299 19.7297C13.5453 19.3018 12.6041 19.3874 12.0907 18.874C11.5773 18.3606 11.5773 17.4193 10.8072 17.4193C11.3206 17.5905 11.834 17.1626 11.834 16.6492C11.7484 15.5368 9.78034 15.3657 9.6092 16.7348C9.6092 16.8203 9.6092 16.9915 9.52363 17.077C9.3525 17.2482 9.09579 17.077 9.09579 16.8203C9.01022 16.6492 9.09579 16.3925 9.09579 16.2214C9.09579 15.708 8.58238 15.5368 8.41125 15.9647C8.06897 16.5636 8.32568 16.7348 7.21329 17.077C6.87102 17.1626 4.21841 17.9327 4.04727 18.1894C3.79057 18.5317 4.13284 19.6441 4.30397 20.0719C4.56068 20.842 4.47511 20.5853 5.07409 20.3286C6.10091 19.7297 8.83909 19.2162 9.95147 19.3874C11.4917 19.5585 12.8608 20.4998 14.1443 21.441C14.3155 21.5266 14.4866 21.6977 14.6577 21.6122C14.8289 21.6122 15 21.3555 15 21.1843C14.9144 20.6709 14.6577 20.0719 14.2299 19.7297Z" fill="#B29C9C"/>
<path d="M11.3206 22.639C11.7484 22.7245 12.0907 22.2967 12.0907 21.8689C12.0907 21.441 11.7484 21.0987 11.4061 20.9276C11.0639 20.7565 10.7216 20.7565 10.4649 21.0132C10.2937 21.1843 10.2937 21.5266 10.037 21.5266C9.8659 21.5266 9.78033 21.3554 9.78033 21.1843C9.78033 21.0132 9.78033 20.842 9.8659 20.7565C9.95147 20.1575 9.43806 20.0719 9.35249 20.4998C9.26692 20.6709 9.35249 20.9276 9.26693 21.0987C9.18136 21.3554 8.92465 21.441 8.66795 21.5266C7.81227 21.6977 4.13284 21.1843 4.13284 23.6658C4.13284 24.1792 4.13283 24.8637 4.64624 24.7782C5.07408 24.6926 8.15454 24.3503 8.58238 24.0936C8.83908 23.9225 8.92465 23.5802 8.83908 23.3235C10.3793 23.5802 11.834 24.4359 12.9464 25.805C13.2886 26.2328 14.1443 26.9174 14.0587 25.805C13.8876 24.607 12.6041 22.8957 11.3206 22.639Z" fill="#B29C9C"/>
<path d="M10.8072 27.7731C10.7216 27.6875 10.5505 27.6019 10.4649 27.5163C10.3793 27.4308 10.3793 27.2596 10.4649 27.0885C10.636 26.9174 10.8927 27.0029 11.1494 26.9174C11.5773 26.8318 11.7484 26.3184 11.5773 25.9761C11.235 25.206 10.2937 25.2916 9.43807 25.4627C9.6092 25.1204 9.09579 24.7782 8.75352 25.206C8.58238 25.3771 8.58238 25.5483 8.49682 25.7194C8.32568 25.3771 7.81227 25.3771 7.38443 25.4627C7.04216 25.6338 6.69988 25.8906 6.35761 26.1473C5.75863 26.4895 4.98852 26.4895 4.30398 26.5751C4.04727 26.5751 3.61943 26.6607 3.44829 26.8318C3.36273 27.0029 3.44829 27.2596 3.44829 27.5163C3.44829 27.8586 3.36273 28.2865 3.61943 28.5432C3.87613 28.971 4.47511 28.8854 4.90295 28.7999C5.75863 28.6287 6.61432 28.4576 7.47 28.2865C7.81227 28.2009 8.15454 28.2009 8.41125 28.2009C9.26693 28.2865 11.0639 29.3133 12.0907 31.1102C12.2618 31.3669 12.433 31.7092 12.7752 31.7948C13.1175 31.8803 13.4598 31.4525 13.4598 31.1102C13.4598 30.7679 13.2886 30.4257 13.0319 30.0834C12.433 29.1421 11.6628 28.372 10.8072 27.7731Z" fill="#B29C9C"/>
<path d="M9.52364 32.4793C9.43807 32.3938 9.26693 32.3082 9.26693 32.2226C9.26693 32.137 9.18136 31.9659 9.26693 31.7948C9.43807 31.6236 9.69477 31.7092 9.95148 31.6236C10.7216 31.4525 10.5505 30.2545 9.43807 30.0834C9.09579 29.9978 8.66795 30.0834 8.32568 30.2546C8.49682 29.9123 7.98341 29.57 7.64113 29.9978C7.47 30.169 7.47 30.3401 7.38443 30.5113C7.21329 30.169 6.69988 30.169 6.35761 30.2546C5.24523 30.6824 6.18648 30.8535 3.36273 31.3669C2.25034 31.5381 2.50704 31.6236 2.50704 32.3082C2.50704 33.1639 2.42148 33.8484 3.9617 33.5917C4.47511 33.5061 6.95659 32.9927 7.47 33.0783C8.32568 33.1639 10.037 34.1907 11.0639 35.9021C11.235 36.1588 11.4061 36.501 11.7484 36.5866C12.0907 36.6722 12.433 36.2443 12.433 35.9021C12.433 35.5598 12.2618 35.2175 12.0051 34.8752C11.1494 33.934 10.3793 33.1639 9.52364 32.4793Z" fill="#B29C9C"/>
<path d="M7.81227 37.2711C7.55557 37.1 7.29886 36.8433 7.47 36.5866C7.64113 36.4154 7.89784 36.501 8.15454 36.4154C9.01022 36.2443 8.83909 34.5329 6.52875 35.0463C6.61432 34.8752 6.52875 34.7041 6.35761 34.6185C6.01534 34.5329 5.75863 34.8752 5.5875 35.2175C5.41636 34.8752 4.90295 34.8752 4.56068 34.9608C3.53386 35.3886 4.38954 35.5598 1.65136 35.9876C0.538975 36.1587 0.79568 36.2443 0.79568 36.8433C0.79568 37.699 0.710112 38.3835 2.16477 38.1268C2.67818 38.0412 5.07409 37.5278 5.5875 37.6134C6.44318 37.699 8.15454 38.7258 9.09579 40.3516C9.26693 40.6083 9.43806 40.9506 9.78034 40.9506C10.1226 41.0361 10.4649 40.6083 10.4649 40.266C10.4649 39.4959 8.58238 37.7845 7.81227 37.2711Z" fill="#B29C9C"/>
</svg>
