<svg width="25" height="21" viewBox="0 0 25 21" fill="none" xmlns="http://www.w3.org/2000/svg">
<path d="M7.17765 11.5109L21.9619 2.7392L9.5272 19.15V18.65C9.45262 18.65 9.39962 18.6464 9.36233 18.6414C9.35685 18.6407 9.35185 18.6399 9.3473 18.6392C9.3378 18.613 9.32398 18.57 9.30353 18.4983C9.29933 18.4835 9.29493 18.4679 9.2903 18.4515C9.26015 18.3446 9.22035 18.2034 9.16287 18.0433L7.17765 11.5109Z" stroke="#B29C9C"/>
<path d="M9.52734 19.15C10.0793 19.15 10.3223 18.898 10.6323 18.597L13.5733 15.74L9.90234 13.526" fill="#B29C9C"/>
<path d="M9.90238 13.5259L18.7924 20.0939C19.8074 20.6539 20.5404 20.3649 20.7924 19.1519L24.4124 2.09894C24.7844 0.611938 23.8484 -0.0600625 22.8784 0.378938L1.62438 8.57594C0.174385 9.15794 0.181385 9.96794 1.36038 10.3289L6.81538 12.0289L19.4394 4.06594C20.0344 3.70594 20.5824 3.89894 20.1334 4.29794" fill="#B29C9C"/>
</svg>
