<svg width="24" height="20" viewBox="0 0 24 20" fill="none" xmlns="http://www.w3.org/2000/svg">
<path d="M23.954 2.56946C23.069 2.95846 22.124 3.22346 21.129 3.34446C22.143 2.73346 22.923 1.77046 23.292 0.62146C22.341 1.17646 21.287 1.58046 20.165 1.80546C19.269 0.84646 17.992 0.24646 16.574 0.24646C13.857 0.24646 11.654 2.44946 11.654 5.16346C11.654 5.55346 11.699 5.92846 11.781 6.28746C7.691 6.09446 4.066 4.13046 1.64 1.16146C1.213 1.88346 0.974 2.72246 0.974 3.63646C0.974 5.34646 1.844 6.84946 3.162 7.73246C2.355 7.70646 1.596 7.48446 0.934 7.11646V7.17746C0.934 9.56246 2.627 11.5515 4.88 12.0045C4.467 12.1155 4.031 12.1755 3.584 12.1755C3.27 12.1755 2.969 12.1455 2.668 12.0895C3.299 14.0425 5.113 15.4665 7.272 15.5065C5.592 16.8255 3.463 17.6115 1.17 17.6115C0.78 17.6115 0.391 17.5885 0 17.5445C2.189 18.9385 4.768 19.7535 7.557 19.7535C16.611 19.7535 21.556 12.2575 21.556 5.76746C21.556 5.55846 21.556 5.34746 21.541 5.13746C22.502 4.44846 23.341 3.57746 24.001 2.58946L23.954 2.56946Z" fill="#B29C9C"/>
</svg>
